# xmcd
#
# Track frame offsets: 
#        150
#        17196
#        34114
#        51788
#        76110
#        92878
#        121726
#        137727
#        156975
#        172591
#
# Disc length: 2551 seconds
#
# Revision: 0
# Processed by: cddbd v1.5.2PL0 Copyright (c) Steve Scherf et al.
# Submitted via: ExactAudioCopy v0.99pb5
#
DISCID=7109f50a
DTITLE=Jackie Scott and The Housewreckers - Going To The Westside
DYEAR=2010
DGENRE=Blues
TTITLE0=Broke As Dick's Hatband
TTITLE1=Use A Little Sax
TTITLE2=Pink Cadillac
TTITLE3=Smooth Taste Revisted
TTITLE4=Going To The Westside
TTITLE5=I'm Tired
TTITLE6=Chicken House Shorty 
TTITLE7=Been Trying To Figure Out
TTITLE8=Mississippi Hook
TTITLE9=Don't Give Up
EXTD=
EXTT0=
EXTT1=
EXTT2=
EXTT3=
EXTT4=
EXTT5=
EXTT6=
EXTT7=
EXTT8=
EXTT9=
PLAYORDER=
